<?xml version="1.0" standalone="no"?>
<!DOCTYPE svg PUBLIC "-//W3C//DTD SVG 20010904//EN"
 "http://www.w3.org/TR/2001/REC-SVG-20010904/DTD/svg10.dtd">
<svg version="1.0" xmlns="http://www.w3.org/2000/svg"
 width="128.000000pt" height="128.000000pt" viewBox="0 0 128.000000 128.000000"
 preserveAspectRatio="xMidYMid meet">
<metadata>
Created by potrace 1.11, written by Peter Selinger 2001-2013
</metadata>
<g transform="translate(0.000000,128.000000) scale(0.100000,-0.100000)"
fill="#000000" stroke="none">
<path d="M530 1124 c-163 -43 -284 -148 -349 -303 -35 -83 -40 -226 -13 -318
111 -363 560 -477 826 -209 88 89 132 185 142 311 13 147 -36 277 -145 386
-69 68 -100 88 -191 121 -71 25 -197 31 -270 12z m160 -294 c14 -41 28 -81 31
-89 4 -10 28 -14 96 -15 140 -2 144 -18 27 -101 -35 -26 -64 -51 -64 -57 0 -7
12 -49 27 -95 22 -66 25 -85 15 -95 -15 -15 -25 -9 -120 59 l-59 42 -76 -56
c-111 -80 -127 -66 -82 67 14 40 25 77 25 80 0 4 -34 31 -75 61 -45 32 -75 60
-75 71 0 20 1 20 110 23 41 2 80 3 85 4 6 0 23 42 40 91 25 78 32 90 49 88 16
-2 27 -20 46 -78z"/>
</g>
</svg>
